<svg width="300" height="300" viewBox="0 0 300 300" fill="none" xmlns="http://www.w3.org/2000/svg">
<path fill-rule="evenodd" clip-rule="evenodd" d="M163.622 96.7196C163.622 94.2562 161.625 92.2593 159.162 92.2593H150.241C147.778 92.2593 145.781 94.2562 145.781 96.7196V141.325C145.781 143.788 143.784 145.785 141.32 145.785H96.7201C94.2567 145.785 92.2598 147.782 92.2598 150.246V159.166C92.2598 161.63 94.2567 163.627 96.7201 163.627H141.32C143.784 163.627 145.781 165.623 145.781 168.087V212.688C145.781 215.151 147.778 217.148 150.241 217.148H159.162C161.625 217.148 163.622 215.151 163.622 212.688V168.087C163.622 165.623 165.619 163.627 168.082 163.627H212.688C215.152 163.627 217.149 161.63 217.149 159.166V150.246C217.149 147.782 215.152 145.785 212.688 145.785H168.082C165.619 145.785 163.622 143.788 163.622 141.325V96.7196Z" fill="white"/>
<path d="M69.6663 186.153L35.7031 245.026L75.3431 242.921L93.3524 278.304L124.771 223.835C102.259 218.012 82.9285 204.456 69.6663 186.153Z" fill="#FFB700" stroke="#FFB700" stroke-width="10"/>
<path d="M229.793 185.859C216.628 204.211 197.298 217.816 174.835 223.737L206.351 278.303L224.36 242.921L264 245.025L229.793 185.859Z" fill="#FFB700" stroke="#FFB700" stroke-width="10"/>
<path d="M149.631 232.39C207.063 232.39 253.62 185.833 253.62 128.402C253.62 70.9706 207.063 24.4134 149.631 24.4134C92.2001 24.4134 45.6429 70.9706 45.6429 128.402C45.6429 185.833 92.2001 232.39 149.631 232.39Z" fill="#FFB700" stroke="white" stroke-width="10.56"/>
<path d="M202.78 120.208C205.173 117.894 203.844 113.845 200.547 113.372L169.866 108.955C168.536 108.745 167.42 107.956 166.835 106.747L153.116 79.2478C151.627 76.2507 147.32 76.2507 145.831 79.2478L132.165 106.747C131.58 107.904 130.411 108.745 129.134 108.955L98.4531 113.372C95.1563 113.845 93.827 117.894 96.2198 120.208L118.393 141.608C119.35 142.554 119.776 143.868 119.563 145.13L114.352 175.311C113.767 178.571 117.277 181.095 120.254 179.518L147.692 165.269C148.862 164.638 150.298 164.638 151.467 165.269L178.905 179.518C181.883 181.042 185.339 178.571 184.807 175.311L179.543 145.13C179.331 143.816 179.756 142.501 180.713 141.608L202.78 120.208Z" fill="white"/>
</svg>