<svg width="300" height="300" viewBox="0 0 300 300" fill="none" xmlns="http://www.w3.org/2000/svg">
<ellipse cx="199.12" cy="96.4602" rx="44.2" ry="39.78" fill="white"/>
<path d="M240.172 59.8273C212.402 32.0573 167.219 32.0577 139.449 59.8277C120.481 78.7961 113.892 106.75 122.105 132.111L41.8971 212.319C40.6829 213.534 40 215.177 40 216.897V253.525C40 257.104 42.8959 260 46.4746 260H83.1027C84.8224 260 86.4665 259.317 87.6803 258.103L96.8358 248.941C98.233 247.544 98.9159 245.584 98.6884 243.617L97.5502 233.779L111.182 232.495C114.281 232.204 116.727 229.757 117.018 226.659L118.302 213.027L128.14 214.171C129.968 214.417 131.808 213.804 133.192 212.578C134.571 211.345 135.361 209.587 135.361 207.741V195.686H147.197C148.917 195.686 150.561 195.003 151.775 193.789L168.379 177.404C193.733 185.624 221.203 179.532 240.172 160.551C267.942 132.781 267.942 87.5973 240.172 59.8273ZM221.855 105.611C214.28 113.186 201.963 113.186 194.389 105.611C186.814 98.0365 186.814 85.7197 194.389 78.1448C201.963 70.57 214.28 70.57 221.855 78.1448C229.43 85.7197 229.43 98.0365 221.855 105.611Z" fill="#FFB700"/>
</svg>
