<svg width="300" height="300" viewBox="0 0 300 300" fill="none" xmlns="http://www.w3.org/2000/svg">
<path fill-rule="evenodd" clip-rule="evenodd" d="M163.622 96.7196C163.622 94.2562 161.625 92.2593 159.162 92.2593H150.241C147.778 92.2593 145.781 94.2562 145.781 96.7196V141.325C145.781 143.788 143.784 145.785 141.32 145.785H96.7201C94.2567 145.785 92.2598 147.782 92.2598 150.246V159.166C92.2598 161.63 94.2567 163.627 96.7201 163.627H141.32C143.784 163.627 145.781 165.623 145.781 168.087V212.688C145.781 215.151 147.778 217.148 150.241 217.148H159.162C161.625 217.148 163.622 215.151 163.622 212.688V168.087C163.622 165.623 165.619 163.627 168.082 163.627H212.688C215.152 163.627 217.149 161.63 217.149 159.166V150.246C217.149 147.782 215.152 145.785 212.688 145.785H168.082C165.619 145.785 163.622 143.788 163.622 141.325V96.7196Z" fill="white"/>
<path d="M84.667 52C84.667 44.268 90.935 38 98.667 38H150H201.334C209.066 38 215.334 44.268 215.334 52V182.667C215.334 190.399 209.066 196.667 201.334 196.667H98.667C90.935 196.667 84.667 190.399 84.667 182.667V52Z" fill="#FFB700"/>
<path d="M159.5 262.558C154.136 267.513 145.864 267.513 140.5 262.558L55.0444 183.617C45.6848 174.971 51.8023 159.334 64.5441 159.334L235.456 159.333C248.198 159.333 254.315 174.971 244.956 183.617L159.5 262.558Z" fill="#FFB700"/>
</svg>